<?xml version="1.0" encoding="utf-8"?>
<!-- Generator: Adobe Illustrator 27.8.1, SVG Export Plug-In . SVG Version: 6.00 Build 0)  -->
<svg version="1.1" id="Capa_1" xmlns="http://www.w3.org/2000/svg" xmlns:xlink="http://www.w3.org/1999/xlink" x="0px" y="0px"
	 viewBox="0 0 600 78.64" style="enable-background:new 0 0 600 78.64;" xml:space="preserve">
<style type="text/css">
	.st0{fill:#1A1B1C;}
</style>
<g>
	<g>
		<path class="st0" d="M151.54,71.8c-1.9-2.29-2.85-5.75-2.85-10.4v-19l-16.49-27.39c-1.48-2.58-2.37-4.2-2.67-4.87
			c-0.3-0.67-0.45-1.39-0.45-2.15c0-1.52,0.52-2.7,1.56-3.54c1.04-0.84,2.5-1.25,4.36-1.25h4.7V1.29H99.25V3.3h1.13
			c3.68,0,6.67,0.77,8.99,2.32c2.32,1.54,4.68,4.31,7.1,8.3l18.89,31.09V61.4c0,4.68-0.94,8.16-2.83,10.43
			c-1.88,2.26-4.77,3.4-8.65,3.4h-4.43v2.12h44.96v-2.12h-4.25C156.31,75.22,153.43,74.08,151.54,71.8z"/>
		<path class="st0" d="M151.67,3.3h4.16c2.65,0,4.8,0.74,6.46,2.23c1.66,1.49,2.49,3.43,2.49,5.83c0,2.07-0.95,4.56-2.85,7.46
			l-3.03,4.81l1.26,0.93l4.44-6.88c1.44-2.25,2.94-4.29,4.49-6.1c1.56-1.81,3.05-3.26,4.5-4.33c1.45-1.07,3.03-1.94,4.74-2.61
			c1.72-0.67,3.65-1.15,5.79-1.44V1.29h-32.45V3.3z"/>
	</g>
	<g>
		<path class="st0" d="M259.19,41.2c-2.8-1.38-6.37-2.56-10.71-3.54v-0.22c3.41-1.12,6.04-2.12,7.91-3
			c1.87-0.87,3.61-1.96,5.24-3.26c4.07-3.23,6.1-7.06,6.1-11.49c0-2.72-0.65-5.27-1.94-7.65c-1.29-2.38-3.12-4.4-5.46-6.07
			c-1.9-1.41-4.52-2.55-7.86-3.4c-3.35-0.86-6.81-1.28-10.4-1.28H230.3v1.91h8.02c5,0,8.7,1.28,11.09,3.84
			c2.39,2.56,3.59,6.49,3.59,11.79c0,11.8-5.62,17.7-16.86,17.7h-5.84v2.13h1.42c5.45,0,9.59,0.45,12.43,1.36
			c2.83,0.91,5.23,2.54,7.19,4.9c2.59,2.98,3.88,6.99,3.88,12.03c0,5.92-1.6,10.48-4.79,13.7c-3.2,3.21-7.79,4.82-13.78,4.82h-6.35
			v1.91h11.9c5.81,0,10.86-0.79,15.14-2.37c4.28-1.58,7.57-3.83,9.88-6.75c2.3-2.92,3.46-6.34,3.46-10.26
			C270.67,50.85,266.84,45.26,259.19,41.2z"/>
		<path class="st0" d="M195.79,3.19h1.85c3.88,0,6.77,1.14,8.65,3.43c1.88,2.29,2.82,5.79,2.82,10.51V61.4
			c0,4.68-0.94,8.16-2.82,10.43c-1.88,2.26-4.77,3.4-8.65,3.4h-1.85v2.12h26.66v-1.91v-36.8v-2.13V3.19V1.29h-26.66V3.19z"/>
	</g>
	<g>
		<path class="st0" d="M501.4,13.81c-3.47-4.25-7.74-7.39-12.81-9.45c-5.08-2.05-11.02-3.08-17.83-3.08h-6.93V3.3h3.54
			c3.41,0,6.32,0.24,8.75,0.71c2.43,0.47,4.56,1.24,6.42,2.31c1.85,1.07,3.52,2.48,4.99,4.22c1.77,2.14,3.25,4.63,4.43,7.46
			c1.17,2.83,2.07,6.11,2.68,9.83c0.62,3.72,0.93,7.67,0.93,11.84c0,12.74-2.5,22.18-7.5,28.31c-1.36,1.74-2.94,3.15-4.75,4.22
			c-1.8,1.07-3.92,1.84-6.32,2.31c-2.41,0.47-5.35,0.71-8.81,0.71h-4.35v2.12h9.91c5.36,0,10.35-0.89,14.96-2.69
			c4.61-1.8,8.59-4.35,11.95-7.65c3.36-3.3,5.96-7.22,7.79-11.76c1.84-4.53,2.76-9.47,2.76-14.81c0-4.86-0.85-9.6-2.55-14.2
			C506.95,21.61,504.53,17.48,501.4,13.81z"/>
		<path class="st0" d="M428.87,3.3h2.3c3.92,0,6.81,1.13,8.68,3.38c1.86,2.25,2.8,5.73,2.8,10.46V61.4c0,4.68-0.94,8.16-2.82,10.43
			c-1.88,2.26-4.76,3.4-8.65,3.4h-2.3v2.12h27.11V1.29h-27.11V3.3z"/>
	</g>
	<g>
		<path class="st0" d="M29.83,71.8c-1.93-2.29-2.89-5.75-2.89-10.4V17.13c0-4.68,0.94-8.16,2.82-10.43c1.88-2.27,4.77-3.4,8.66-3.4
			h1.4V1.29H0V3.3h2.17c3.62,0,6.33,0.96,8.14,2.89c0.99,0.94,1.73,2.1,2.21,3.46c0.48,1.36,0.86,3.2,1.13,5.53
			c0,1.92,0,5.85,0,11.79c0,5.94,0,11.31,0,16.14c0,5.01,0,8.68,0,11c0,2.32,0,4.75,0,7.29c0,4.68-0.94,8.16-2.82,10.43
			c-1.88,2.26-4.77,3.4-8.65,3.4H0.14v2.12h39.68v-2.12h-1.4C34.62,75.22,31.75,74.08,29.83,71.8z"/>
		<path class="st0" d="M48.13,3.3h1.31c3.92,0,6.81,1.13,8.68,3.38c1.87,2.25,2.8,5.73,2.8,10.46V61.4c0,4.68-0.94,8.16-2.82,10.43
			c-1.88,2.26-4.77,3.4-8.65,3.4h-1.31v2.12h39.45v-2.12h-1.85c-3.8,0-6.66-1.14-8.59-3.43c-1.93-2.29-2.89-5.75-2.89-10.4V17.13
			c0-4.68,0.95-8.16,2.85-10.43c1.9-2.27,4.77-3.4,8.63-3.4h1.85V1.29H48.13V3.3z"/>
		<rect x="30.71" y="37.55" class="st0" width="26.17" height="2.23"/>
	</g>
	<g>
		<path class="st0" d="M322.17,40.11c4.88,0,8.51-0.11,10.89-0.33c3.13-0.33,6.28-0.96,9.45-1.91c3.16-0.94,5.66-2.01,7.5-3.21
			c4.94-3.49,7.41-8.1,7.41-13.83c0-2.11-0.38-4.23-1.15-6.37c-0.77-2.14-1.8-3.99-3.1-5.55c-2.26-2.76-5.32-4.72-9.17-5.89
			c-3.85-1.16-9.1-1.74-15.72-1.74h-48.94V3.3h1.72c3.92,0,6.81,1.13,8.68,3.38c1.87,2.25,2.8,5.73,2.8,10.46V61.4
			c0,4.68-0.94,8.16-2.83,10.43c-1.88,2.26-4.77,3.4-8.65,3.4h-1.72v2.12h39.86v-2.12h-1.85c-3.85,0-6.73-1.14-8.63-3.43
			c-1.9-2.29-2.85-5.75-2.85-10.4V40.11H322.17z M305.86,3.3h18.26c12.2,0,18.3,5.77,18.3,17.31c0,4.03-0.67,7.32-2.01,9.88
			c-1.34,2.56-3.37,4.46-6.1,5.72c-2.73,1.25-6.22,1.88-10.46,1.88h-17.99V3.3z"/>
		<path class="st0" d="M355.39,72.89c-0.99-0.91-2.25-2.5-3.77-4.76c-1.52-2.27-3.13-4.95-4.81-8.03c-0.64-1.13-1.19-2.12-1.68-2.99
			c-0.48-0.87-1.22-2.18-2.21-3.92l-1.49-2.72c-2.53-0.69-4.79-1.46-6.78-2.31c-1.99-0.85-3.96-1.9-5.92-3.13
			c-0.47-0.3-0.96-0.61-1.45-0.95h-4.91l19.51,33.29h23.68v-2.12h-1.76C360.15,75.22,357.35,74.44,355.39,72.89z"/>
	</g>
	<path class="st0" d="M376.91,3.3h1.76c3.61,0,6.32,0.96,8.14,2.89c0.99,0.94,1.74,2.12,2.23,3.54c0.5,1.42,0.87,3.32,1.11,5.72
		c0,6.06,0,15.48,0,28.25c0,3.12,0,5.47,0,7.02c0,1.56,0,3.2,0,4.9c0,1.71,0,3.63,0,5.77c0,4.68-0.94,8.16-2.82,10.43
		c-1.88,2.26-4.77,3.4-8.65,3.4h-1.76v2.12h39.77v-2.12h-1.76c-3.86,0-6.73-1.14-8.61-3.4c-1.88-2.27-2.82-5.75-2.82-10.43V17.13
		c0-4.72,0.93-8.21,2.8-10.46c1.86-2.25,4.74-3.38,8.63-3.38h1.76V1.29h-39.77V3.3z"/>
	<g>
		<path class="st0" d="M553.18,74.24c-2.68-1.74-4.98-4.27-6.91-7.59c-1.93-3.32-3.4-7.28-4.43-11.87
			c-1.03-4.59-1.53-9.68-1.53-15.27c0-4.47,0.32-8.63,0.97-12.49c0.65-3.87,1.61-7.37,2.89-10.51c1.28-3.14,2.82-5.85,4.63-8.14
			c1.66-2.11,3.7-3.73,6.12-4.87c1.03-0.49,2.1-0.85,3.19-1.12V0c-5.41,0.5-10.49,2.22-15.24,5.18
			c-5.72,3.58-10.29,8.41-13.69,14.51c-3.4,6.1-5.11,12.67-5.11,19.71c0,5.3,0.99,10.38,2.96,15.24c1.97,4.86,4.72,9.12,8.25,12.77
			c3.52,3.65,7.6,6.47,12.22,8.47c3.37,1.45,6.91,2.37,10.6,2.76v-2.26C556.37,75.95,554.73,75.25,553.18,74.24z"/>
		<path class="st0" d="M570.9,74.24c2.68-1.74,4.98-4.27,6.91-7.59c1.93-3.32,3.4-7.28,4.43-11.87c1.03-4.59,1.53-9.68,1.53-15.27
			c0-4.47-0.32-8.63-0.97-12.49c-0.65-3.87-1.61-7.37-2.89-10.51c-1.28-3.14-2.82-5.85-4.63-8.14c-1.66-2.11-3.7-3.73-6.12-4.87
			c-1.03-0.49-2.1-0.85-3.19-1.12V0c5.41,0.5,10.49,2.22,15.24,5.18c5.72,3.58,10.29,8.41,13.69,14.51
			c3.4,6.1,5.11,12.67,5.11,19.71c0,5.3-0.99,10.38-2.96,15.24c-1.97,4.86-4.72,9.12-8.25,12.77c-3.52,3.65-7.6,6.47-12.22,8.47
			c-3.37,1.45-6.91,2.37-10.6,2.76v-2.26C567.71,75.95,569.35,75.25,570.9,74.24z"/>
	</g>
</g>
</svg>
